# disc_navmesh.obj - N=16, R=1.0
o DiscNavmesh
v 0.000000 0.000000 0.000000
v 1.000000 0.000000 0.000000
v 0.923880 0.000000 0.382683
v 0.707107 0.000000 0.707107
v 0.382683 0.000000 0.923880
v 0.000000 0.000000 1.000000
v -0.382683 0.000000 0.923880
v -0.707107 0.000000 0.707107
v -0.923880 0.000000 0.382683
v -1.000000 0.000000 0.000000
v -0.923880 0.000000 -0.382683
v -0.707107 0.000000 -0.707107
v -0.382683 0.000000 -0.923880
v 0.000000 0.000000 -1.000000
v 0.382683 0.000000 -0.923880
v 0.707107 0.000000 -0.707107
v 0.923880 0.000000 -0.382683

# faces (triangles) using 1-based indices
f 1 2 3
f 1 3 4
f 1 4 5
f 1 5 6
f 1 6 7
f 1 7 8
f 1 8 9
f 1 9 10
f 1 10 11
f 1 11 12
f 1 12 13
f 1 13 14
f 1 14 15
f 1 15 16
f 1 16 17
f 1 17 2
